<?xml version="1.0" standalone="no"?>
<!DOCTYPE svg PUBLIC "-//W3C//DTD SVG 20010904//EN"
 "http://www.w3.org/TR/2001/REC-SVG-20010904/DTD/svg10.dtd">
<svg version="1.0" xmlns="http://www.w3.org/2000/svg"
 width="256.000000pt" height="256.000000pt" viewBox="0 0 256.000000 256.000000"
 preserveAspectRatio="xMidYMid meet">
<metadata>
Created by potrace 1.11, written by Peter Selinger 2001-2013
</metadata>
<g transform="translate(0.000000,256.000000) scale(0.100000,-0.100000)"
fill="#000000" stroke="none">
<path d="M1252 2423 c-13 -3 -43 -24 -66 -48 l-43 -43 -53 29 c-29 16 -64 29
-77 29 -48 0 -99 -42 -123 -100 -14 -35 -13 -34 -71 -17 -93 28 -147 -1 -172
-92 -10 -34 -23 -61 -30 -62 -6 0 -38 -2 -70 -3 -47 -1 -61 -6 -80 -27 -27
-30 -30 -40 -31 -107 -1 -56 -10 -67 -57 -74 -42 -7 -86 -36 -99 -67 -11 -29
-11 -49 6 -128 6 -29 3 -33 -49 -67 -70 -44 -85 -83 -59 -152 9 -24 20 -44 24
-44 4 0 8 -7 8 -15 0 -8 5 -15 11 -15 7 0 -4 -15 -23 -33 -85 -80 -90 -135
-19 -206 l44 -45 -28 -49 c-16 -29 -28 -65 -28 -89 -1 -33 5 -45 35 -73 20
-19 37 -32 39 -30 3 2 15 -4 28 -14 23 -17 23 -21 13 -64 -18 -71 -15 -100 15
-134 24 -25 88 -55 128 -57 5 -1 10 -28 10 -62 0 -65 22 -112 56 -121 10 -3
17 -9 14 -13 -2 -4 14 -6 37 -4 23 2 47 -1 54 -7 8 -7 14 -7 19 1 9 14 22 13
22 -4 0 -35 27 -107 49 -127 30 -28 88 -34 143 -15 50 18 52 19 49 9 -5 -17
67 -113 84 -113 10 0 18 -4 18 -8 0 -5 10 -8 23 -8 30 2 117 38 117 48 0 4 7
8 15 8 8 0 15 -4 15 -9 0 -5 9 -13 20 -16 11 -3 20 -12 20 -18 1 -17 86 -56
101 -46 8 4 19 3 27 -3 7 -6 12 -7 10 -2 -2 5 0 9 4 9 3 0 17 12 30 27 13 16
30 28 38 28 11 0 12 2 3 8 -9 6 -7 11 7 20 11 7 20 8 20 3 0 -5 8 -11 18 -15
9 -3 24 -9 32 -14 57 -33 76 -35 118 -13 11 6 22 7 26 4 3 -3 6 1 6 11 0 10 5
14 12 10 6 -4 9 -3 6 2 -9 13 35 89 50 88 6 -1 13 -2 15 -3 23 -20 166 -16
185 4 4 4 1 4 -7 0 -11 -6 -13 -4 -8 9 4 10 7 20 7 22 0 3 4 3 8 0 4 -2 8 4 9
13 1 10 7 37 13 60 11 41 23 51 35 31 5 -8 11 -8 20 0 7 6 24 9 38 6 15 -2 28
1 31 7 3 8 5 7 5 -2 1 -10 7 -7 20 7 10 12 20 19 23 17 13 -13 35 44 34 88 -1
26 3 47 8 47 4 0 3 6 -3 14 -14 17 -6 23 39 31 47 8 97 33 106 53 18 43 20 92
4 122 -16 30 -12 54 11 69 18 11 23 11 31 -1 8 -10 8 -9 4 5 -3 9 -2 17 2 17
4 0 21 13 38 28 28 25 31 34 29 74 -2 29 -13 60 -30 87 l-28 41 34 33 c48 47
60 72 58 122 -2 38 -9 50 -46 85 -39 36 -42 42 -31 64 6 14 15 23 21 19 6 -3
7 -1 4 4 -9 14 17 65 28 55 4 -4 3 2 -3 13 -7 14 -7 26 0 39 7 12 7 17 0 12
-5 -3 -15 7 -22 23 -6 16 -19 32 -28 35 -65 24 -90 52 -77 84 23 50 22 114 -1
141 -21 24 -76 51 -105 51 -11 0 -19 5 -19 11 0 5 -4 8 -9 5 -5 -3 -11 3 -14
14 -3 11 -1 18 4 14 5 -3 6 5 1 18 -4 13 -8 36 -7 53 0 20 -8 39 -27 57 -16
16 -32 28 -36 29 -15 1 -38 7 -56 15 -12 4 -17 4 -13 -2 3 -6 -8 -8 -27 -6
-29 3 -35 9 -46 45 -24 79 -35 97 -65 108 -42 16 -63 17 -114 2 -39 -11 -47
-11 -62 3 -10 9 -16 20 -14 24 2 4 -10 24 -28 44 -41 47 -91 57 -145 30 -20
-11 -43 -25 -50 -31 -16 -15 -57 1 -47 18 4 5 3 8 -2 7 -4 -2 -8 0 -8 5 0 11
-56 43 -85 49 -14 2 -36 3 -48 1z"/>
</g>
</svg>
